<svg xmlns="http://www.w3.org/2000/svg" width="23.018" height="23.845" viewBox="0 0 23.018 23.845">
  <g id="Grupo_4574" data-name="Grupo 4574" transform="translate(-38.699 -405.078)">
    <path id="Trazado_24294" data-name="Trazado 24294" d="M64.231,417.635c-2.05-3.2-2.178-4.094-2.184-4.141-.917-7.809-7.229-8.416-9.142-8.416-.176,0-.329,0-.448.007l-.169,0c-.941,0-5.753.184-8.091,3.813a.361.361,0,1,0,.607.391c2.136-3.314,6.609-3.481,7.484-3.481l.187,0c.114,0,.261-.006.43-.006,1.762,0,7.576.561,8.422,7.754,0,.1.112,1.062,2.3,4.483a.613.613,0,0,1,.091.406.6.6,0,0,1-.32.359,15.867,15.867,0,0,1-1.9.9.36.36,0,0,0-.229.376,18.345,18.345,0,0,1,.038,3.833c-.1.525-1.291.877-2.963.877-.176,0-.286,0-.284,0s-.051,0-.121,0c-.855,0-1.159.436-1.159.843v2.934a.361.361,0,1,0,.723,0v-2.934c0-.064.2-.121.437-.121.036,0,.061,0,.077,0,0,0,.125.006.328.006,1.268,0,3.43-.19,3.673-1.465a17.019,17.019,0,0,0,0-3.773,15.719,15.719,0,0,0,1.748-.849,1.281,1.281,0,0,0,.664-.83A1.306,1.306,0,0,0,64.231,417.635Z" transform="translate(-2.738)" fill="#171717"/>
    <path id="Trazado_24295" data-name="Trazado 24295" d="M54.156,428.66a2.968,2.968,0,0,0-.691-3.085,2.932,2.932,0,0,0-2.585-.821l-2.9-2.9,3.223-3.222.255.255a.36.36,0,0,0,.466.038l1.81-1.3a.361.361,0,0,0,.045-.549l-1.534-1.534a.361.361,0,0,0-.549.045l-1.3,1.81a.361.361,0,0,0,.038.466l.256.255-3.223,3.223-2.9-2.9a2.93,2.93,0,0,0-.821-2.585,2.967,2.967,0,0,0-3.085-.691.361.361,0,0,0-.134.6l1.8,1.8a1.788,1.788,0,0,1-1.055,1.056l-1.8-1.8a.361.361,0,0,0-.6.134,2.968,2.968,0,0,0,.691,3.085,2.932,2.932,0,0,0,2.585.821l2.9,2.9L44,424.8l-.506-.506a.84.84,0,0,0-1.187,0l-.26.26a9.269,9.269,0,0,1-.941-3,.361.361,0,1,0-.714.111,9.827,9.827,0,0,0,1.125,3.417l-2.058,2.057a1.918,1.918,0,0,0,0,2.709h0a1.919,1.919,0,0,0,2.709,0l1.571-1.571a9.715,9.715,0,0,1,.6,5.2.361.361,0,0,0,.305.41.316.316,0,0,0,.053,0,.361.361,0,0,0,.357-.309,10.413,10.413,0,0,0-.677-5.65c-.031-.069-.065-.133-.1-.2l.737-.737a.841.841,0,0,0,0-1.187l-.506-.506,1.051-1.05,2.9,2.9a2.929,2.929,0,0,0,.821,2.585,2.968,2.968,0,0,0,3.085.691.361.361,0,0,0,.134-.6l-1.8-1.8A1.788,1.788,0,0,1,51.765,427l1.8,1.8a.36.36,0,0,0,.595-.134Zm-2.124-12.309.465.466.465.466-1.215.872-.588-.588ZM44.5,426.5l-2.848,2.848a1.193,1.193,0,0,1-1.687-1.687l2.848-2.848a.118.118,0,0,1,.165,0l.761.761h0l.76.76A.118.118,0,0,1,44.5,426.5Zm9.1,1.315-1.478-1.478a.358.358,0,0,0-.343-.095,2.507,2.507,0,0,0-1.829,1.829.361.361,0,0,0,.095.343l1.478,1.479a2.255,2.255,0,0,1-1.726-.646,2.217,2.217,0,0,1-.588-2.106.36.36,0,0,0-.1-.341l-6.595-6.6a.362.362,0,0,0-.255-.106.352.352,0,0,0-.085.01,2.218,2.218,0,0,1-2.107-.588,2.242,2.242,0,0,1-.646-1.727l1.478,1.478a.356.356,0,0,0,.343.095,2.507,2.507,0,0,0,1.83-1.829.361.361,0,0,0-.095-.343L41.5,415.713a2.259,2.259,0,0,1,1.726.646,2.216,2.216,0,0,1,.588,2.106.363.363,0,0,0,.1.341l6.595,6.6a.358.358,0,0,0,.341.095,2.22,2.22,0,0,1,2.107.588A2.243,2.243,0,0,1,53.6,427.812Z" transform="translate(0 -4.986)" fill="#171717"/>
  </g>
</svg>
