<svg xmlns="http://www.w3.org/2000/svg" width="21.682" height="23" viewBox="0 0 21.682 23">
  <g id="Grupo_4575" data-name="Grupo 4575" transform="translate(-518.018 -87.69)">
    <path id="Trazado_24224" data-name="Trazado 24224" d="M528.956,102.422h-.983a1.046,1.046,0,0,0-1.045,1.045v.983a1.046,1.046,0,0,0,1.045,1.045h.983A1.046,1.046,0,0,0,530,104.451v-.983A1.046,1.046,0,0,0,528.956,102.422Zm.349,2.029a.349.349,0,0,1-.349.348h-.983a.349.349,0,0,1-.348-.348v-.983a.349.349,0,0,1,.348-.348h.983a.349.349,0,0,1,.349.348Z" transform="translate(-4.634 -7.662)" fill="#171717"/>
    <path id="Trazado_24225" data-name="Trazado 24225" d="M528.956,112.441h-.983a1.046,1.046,0,0,0-1.045,1.045v.983a1.046,1.046,0,0,0,1.045,1.045h.983A1.046,1.046,0,0,0,530,114.47v-.983A1.046,1.046,0,0,0,528.956,112.441Zm.349,2.029a.349.349,0,0,1-.349.348h-.983a.349.349,0,0,1-.348-.348v-.983a.349.349,0,0,1,.348-.348h.983a.349.349,0,0,1,.349.348Z" transform="translate(-4.634 -12.874)" fill="#171717"/>
    <path id="Trazado_24226" data-name="Trazado 24226" d="M528.956,122.461h-.983a1.046,1.046,0,0,0-1.045,1.045v.983a1.046,1.046,0,0,0,1.045,1.045h.983A1.046,1.046,0,0,0,530,124.49v-.983A1.046,1.046,0,0,0,528.956,122.461Zm.349,2.029a.349.349,0,0,1-.349.348h-.983a.349.349,0,0,1-.348-.348v-.983a.349.349,0,0,1,.348-.349h.983a.349.349,0,0,1,.349.349Z" transform="translate(-4.634 -18.049)" fill="#171717"/>
    <path id="Trazado_24227" data-name="Trazado 24227" d="M536.088,103.12h7.029a.348.348,0,1,0,0-.7h-7.029a.348.348,0,1,0,0,.7Z" transform="translate(-9.184 -7.671)" fill="#171717"/>
    <path id="Trazado_24228" data-name="Trazado 24228" d="M536.088,113.139h7.029a.348.348,0,1,0,0-.7h-7.029a.348.348,0,1,0,0,.7Z" transform="translate(-9.184 -12.888)" fill="#171717"/>
    <path id="Trazado_24229" data-name="Trazado 24229" d="M536.088,118.148H540.7a.348.348,0,1,0,0-.7h-4.613a.348.348,0,1,0,0,.7Z" transform="translate(-9.203 -15.497)" fill="#171717"/>
    <path id="Trazado_24230" data-name="Trazado 24230" d="M536.088,108.128h5.461a.348.348,0,1,0,0-.7h-5.461a.348.348,0,1,0,0,.7Z" transform="translate(-9.197 -10.28)" fill="#171717"/>
    <path id="Trazado_24231" data-name="Trazado 24231" d="M536.088,123.158H540.7a.348.348,0,1,0,0-.7h-4.613a.348.348,0,1,0,0,.7Z" transform="translate(-9.203 -18.106)" fill="#171717"/>
    <path id="Trazado_24232" data-name="Trazado 24232" d="M541.549,127.471h-5.461a.348.348,0,1,0,0,.7h5.461a.348.348,0,1,0,0-.7Z" transform="translate(-9.197 -20.682)" fill="#171717"/>
    <path id="Trazado_24233" data-name="Trazado 24233" d="M539.7,103.937a3.522,3.522,0,0,0-3.166-3.5V90.265a2.578,2.578,0,0,0-2.575-2.575H520.592a2.573,2.573,0,0,0-.351,5.122v17.525a.352.352,0,0,0,.352.353h15.591a.352.352,0,0,0,.352-.352v-2.9A3.522,3.522,0,0,0,539.7,103.937ZM518.721,90.265a1.873,1.873,0,0,1,1.87-1.871h11.6a2.57,2.57,0,0,0,0,3.742h-11.6A1.872,1.872,0,0,1,518.721,90.265Zm2.222,19.721V92.84h13.016a.352.352,0,1,0,0-.7,1.871,1.871,0,1,1,1.871-1.871v10.171a3.518,3.518,0,0,0,0,7v2.549H520.943Zm15.239-3.235A2.815,2.815,0,1,1,539,103.937,2.818,2.818,0,0,1,536.182,106.751Z" transform="translate(0 0)" fill="#171717"/>
    <path id="Trazado_24234" data-name="Trazado 24234" d="M555.391,119.319h-1.045v-1.045a.348.348,0,0,0-.7,0v1.045H552.6a.348.348,0,1,0,0,.7h1.045v1.045a.348.348,0,1,0,.7,0v-1.045h1.045a.348.348,0,1,0,0-.7Z" transform="translate(-17.782 -15.723)" fill="#171717"/>
  </g>
</svg>
