<svg xmlns="http://www.w3.org/2000/svg" width="9.391" height="13.582" viewBox="0 0 9.391 13.582">
  <path id="Sustracción_8" data-name="Sustracción 8" d="M4.4,13h0a19.475,19.475,0,0,1-3.12-4.237A9.4,9.4,0,0,1,0,4.538,4.478,4.478,0,0,1,4.4,0a4.478,4.478,0,0,1,4.4,4.538A9.4,9.4,0,0,1,7.526,8.762,19.471,19.471,0,0,1,4.4,13Zm0-10.937A2.442,2.442,0,0,0,2,4.538,2.442,2.442,0,0,0,4.4,7.014a2.442,2.442,0,0,0,2.4-2.475A2.442,2.442,0,0,0,4.4,2.063Z" transform="translate(0.291 0.291)" fill="none" stroke="#fed100" stroke-linecap="round" stroke-linejoin="round" stroke-miterlimit="10" stroke-width="0.582"/>
</svg>
