<svg xmlns="http://www.w3.org/2000/svg" width="23" height="23" viewBox="0 0 23 23">
  <path id="Trazado_25023" data-name="Trazado 25023" d="M420.794,107.6h-.609V97.729a.349.349,0,0,0-.349-.349h-2.091a.349.349,0,0,0-.348.349V107.6H416V99.777a.349.349,0,0,0-.348-.348h-2.091a.348.348,0,0,0-.349.348V107.6H411.82v-2.9a.348.348,0,0,0-.348-.349h-2.091a.349.349,0,0,0-.349.349v2.9h-1.219V103l1.571-.612a1.3,1.3,0,0,0,2.129-1.5l2.538-2.935a1.289,1.289,0,0,0,.557.13,1.3,1.3,0,0,0,1.279-1.575l1.947-1a1.295,1.295,0,1,0-.323-.618l-1.947,1a1.318,1.318,0,0,0-.209-.184V92.336c0-.008,0-.014,0-.021a.372.372,0,0,0-.019-.092.3.3,0,0,0-.079-.131v0l-4.343-4.342h0a.347.347,0,0,0-.1-.067.242.242,0,0,0-.033-.012.375.375,0,0,0-.091-.018c-.008,0-.015,0-.023,0H398.49a.348.348,0,0,0-.348.348v22.3a.348.348,0,0,0,.348.349h16.517a.348.348,0,0,0,.348-.349v-2h5.437a.348.348,0,0,0,0-.7Zm-2-13.591a.61.61,0,1,1-.609.61A.61.61,0,0,1,418.791,94Zm-4.879,6.12h1.393V107.6h-1.393Zm-4.182,4.923h1.394V107.6H409.73Zm.7-2.831a.61.61,0,1,1,.609-.61A.611.611,0,0,1,410.427,102.217Zm4.182-4.836a.61.61,0,1,1,.609-.609A.61.61,0,0,1,414.609,97.381Zm-.442-5.392h-3.153V88.835Zm.493,17.96H398.84V88.343h11.476v3.995a.349.349,0,0,0,.349.348h3.994V95.47c-.017,0-.033-.005-.05-.005a1.306,1.306,0,0,0-1.087,2.031l-2.538,2.934a1.289,1.289,0,0,0-.557-.13,1.309,1.309,0,0,0-1.307,1.307c0,.045.009.087.013.13l-1.32.515V94.616a.349.349,0,0,0-.7,0v13.329a.349.349,0,0,0,.349.349h7.194v1.655Zm3.435-2.353V98.078h1.393V107.6Z" transform="translate(-398.142 -87.645)" fill="#b9b9b9"/>
</svg>
